<svg width="270" height="308" viewBox="0 0 270 308" fill="none" xmlns="http://www.w3.org/2000/svg">
<path d="M269.11 267.108C269.11 279.269 265.346 289.113 257.817 296.642C250.289 303.88 240.444 307.5 228.283 307.5H197.012C184.851 307.5 175.007 303.88 167.478 296.642C159.95 289.113 156.186 279.269 156.186 267.108V40.3919C156.186 28.2309 159.95 18.5311 167.478 11.2924C175.007 3.76412 184.851 0 197.012 0H228.283C240.444 0 250.289 3.76412 257.817 11.2924C265.346 18.5311 269.11 28.2309 269.11 40.3919V267.108ZM199.618 40.3919C198.171 40.3919 197.447 41.1158 197.447 42.5635V264.936C197.447 266.384 198.171 267.108 199.618 267.108H225.678C227.125 267.108 227.849 266.384 227.849 264.936V42.5635C227.849 41.1158 227.125 40.3919 225.678 40.3919H199.618Z" fill="url(#paint0_linear_912_172)"/>
<path d="M95.5507 1.7373H136.811V305.762H95.5507L47.7754 119.873V305.762H6.51482V42.1292H0L4.34322 1.7373H49.947L98.1567 195.01L95.5507 1.7373Z" fill="url(#paint1_linear_912_172)"/>
<defs>
<linearGradient id="paint0_linear_912_172" x1="120.336" y1="12.7627" x2="136.836" y2="305.763" gradientUnits="userSpaceOnUse">
<stop stop-color="white"/>
<stop offset="1" stop-color="white" stop-opacity="0"/>
</linearGradient>
<linearGradient id="paint1_linear_912_172" x1="120.336" y1="12.7627" x2="136.836" y2="305.763" gradientUnits="userSpaceOnUse">
<stop stop-color="white"/>
<stop offset="1" stop-color="white" stop-opacity="0"/>
</linearGradient>
</defs>
</svg>
