<svg width="372" height="308" viewBox="0 0 372 308" fill="none" xmlns="http://www.w3.org/2000/svg">
<path d="M308.674 218.898V264.936C308.674 266.384 309.398 267.108 310.845 267.108H328.218C329.666 267.108 330.39 266.384 330.39 264.936V186.758L296.078 171.557C293.472 170.688 289.853 169.241 285.22 167.214C280.588 164.897 276.389 161.568 272.625 157.224C269.15 152.881 267.413 146.945 267.413 139.417V40.3919C267.413 28.2309 271.177 18.5311 278.705 11.2924C286.234 3.76412 296.078 0 308.239 0H330.824C342.985 0 352.83 3.76412 360.358 11.2924C367.886 18.5311 371.65 28.2309 371.65 40.3919V104.672L330.39 101.197V42.5635C330.39 41.1158 329.666 40.3919 328.218 40.3919H310.845C309.398 40.3919 308.674 41.1158 308.674 42.5635V133.337L342.985 148.538C345.591 149.696 349.21 151.289 353.843 153.316C358.476 155.342 362.53 158.527 366.004 162.871C369.768 167.214 371.65 173.15 371.65 180.678V267.108C371.65 279.269 367.886 289.113 360.358 296.642C352.83 303.88 342.985 307.5 330.824 307.5H308.239C296.078 307.5 286.234 303.88 278.705 296.642C271.177 289.113 267.413 279.269 267.413 267.108V218.898H308.674Z" fill="url(#paint0_linear_912_176)"/>
<path d="M254.455 265.37L250.98 305.762H155.864V42.1292H149.349L153.692 1.7373H254.455L250.112 42.1292H197.124V133.337H245.768L241.425 173.729H197.124V265.37H254.455Z" fill="url(#paint1_linear_912_176)"/>
<path d="M92.0762 171.557V305.762H50.8156V171.557L0 1.7373H41.2605L71.6631 102.934L101.631 1.7373H142.892L92.0762 171.557Z" fill="url(#paint2_linear_912_176)"/>
<defs>
<linearGradient id="paint0_linear_912_176" x1="168.272" y1="12.7627" x2="180.575" y2="306.176" gradientUnits="userSpaceOnUse">
<stop stop-color="white"/>
<stop offset="1" stop-color="white" stop-opacity="0"/>
</linearGradient>
<linearGradient id="paint1_linear_912_176" x1="168.272" y1="12.7627" x2="180.575" y2="306.176" gradientUnits="userSpaceOnUse">
<stop stop-color="white"/>
<stop offset="1" stop-color="white" stop-opacity="0"/>
</linearGradient>
<linearGradient id="paint2_linear_912_176" x1="168.272" y1="12.7627" x2="180.575" y2="306.176" gradientUnits="userSpaceOnUse">
<stop stop-color="white"/>
<stop offset="1" stop-color="white" stop-opacity="0"/>
</linearGradient>
</defs>
</svg>
